<?xml version="1.0" standalone="no"?>
<!DOCTYPE svg PUBLIC "-//W3C//DTD SVG 1.1//EN" "http://www.w3.org/Graphics/SVG/1.1/DTD/svg11.dtd">
<svg t="1632584439728" class="icon" viewBox="0 0 1024 1024" version="1.1" xmlns="http://www.w3.org/2000/svg" p-id="17163" xmlns:xlink="http://www.w3.org/1999/xlink" width="500" height="500">
    <defs><style type="text/css"></style></defs>
    <path fill="#fff" d="M512 76.688C271.968 76.688 76.688 271.968 76.688 512c0 240.016 195.28 435.312 435.312 435.312S947.328 752.032 947.328 512 752.032 76.688 512 76.688z m-36.96 755.84l6.384-51.072 3.744-0.256a442.352 442.352 0 0 1 27.568-1.072c25.12 0 40.976 4.128 49.888 12.976l0.784 0.768 12.88 38.672H475.04z m77.68-125.296l6.784 40.768h-73.28v-9.808l6.112-30.96h60.384z m-57.2-27.904l7.536-30.208h38.8l7.552 30.208H495.52z m105.44-46.64l-0.16 4.352h-156.624l-0.736-14.448c-3.328-62.96-7.088-134.304 34.512-157.808 10.736-10.08 25.44-15.28 44.144-15.28 9.664 0 20.464 1.376 33.056 4.24l0.864 0.192 0.736 0.512c49.632 34.56 47.36 94.816 44.208 178.24z m190.192 116.16l-0.096 4.432H723.84l1.056-39.664c4.336-156.416 8.416-304.192-61.424-376.896-30.576-31.824-73.264-47.664-130.512-48.368l-3.472-0.016c-54.16 0-95.792 15.648-127.248 47.856-78.56 80.432-74.672 245.68-71.232 391.488l0.608 26.064-67.2-6.112-0.08-4.048c-4.08-180.224-0.384-364 91.184-457.664 40.512-41.44 96.464-62.448 166.304-62.448 15.424 0 31.808 1.008 48.72 3.024 231.184 27.472 226.288 256.816 220.608 522.352z" p-id="17164"></path>
    <path  fill="#fff" d="M512 2.672C231.152 2.672 2.672 231.152 2.672 512S231.152 1021.328 512 1021.328c280.848 0 509.344-228.464 509.344-509.328S792.848 2.672 512 2.672z m0 960.64C263.136 963.312 60.688 760.864 60.688 512 60.688 263.152 263.136 60.688 512 60.688s451.328 202.464 451.328 451.328c0 248.848-202.464 451.296-451.328 451.296z" p-id="17165"></path>
</svg>