<?xml version="1.0" standalone="no"?><!DOCTYPE svg PUBLIC "-//W3C//DTD SVG 1.1//EN" "http://www.w3.org/Graphics/SVG/1.1/DTD/svg11.dtd"><svg t="1688718362366" class="icon" viewBox="0 0 1024 1024" version="1.1" xmlns="http://www.w3.org/2000/svg" p-id="12091" xmlns:xlink="http://www.w3.org/1999/xlink" width="400" height="400"><path d="M512 960c-60.473 0-119.145-11.848-174.387-35.213-53.35-22.564-101.259-54.865-142.397-96.003-41.139-41.139-73.439-89.048-96.003-142.397C75.847 631.145 64 572.473 64 512s11.847-119.145 35.213-174.387c22.564-53.35 54.865-101.259 96.003-142.397 41.138-41.138 89.047-73.438 142.397-96.003C392.855 75.848 451.527 64 512 64s119.145 11.848 174.387 35.213c53.35 22.564 101.259 54.865 142.397 96.003 41.139 41.139 73.439 89.048 96.003 142.397C948.153 392.855 960 451.527 960 512s-11.847 119.145-35.213 174.387c-22.564 53.35-54.865 101.259-96.003 142.397-41.138 41.138-89.047 73.438-142.397 96.003C631.145 948.152 572.473 960 512 960z m0-864C282.617 96 96 282.617 96 512s186.617 416 416 416 416-186.617 416-416S741.383 96 512 96z" fill="#555F82" p-id="12092"></path><path d="M380.943 784c-44.404 0-73.934-35.912-55.235-67.302C358.317 661.958 429.471 624 512 624s153.683 37.958 186.291 92.698C716.99 748.088 687.46 784 643.056 784H380.943z" fill="#545C7F" p-id="12093"></path><path d="M658.087 640C609.391 640 512 560 512 560s97.391-80 146.087-80C706.783 480 736 515.817 736 560s-29.217 80-77.913 80z" fill="#0096FF" p-id="12094"></path><path d="M147.323 408.31c2.899 1.495 5.649 3.083 8.378 4.644 2.776 1.509 5.572 2.941 8.26 4.452l8.248 4.169c2.749 1.342 5.527 2.596 8.254 3.88 11.014 4.979 22.105 9.135 33.284 12.485 22.358 6.669 45.113 10.07 67.913 10.061 22.798-0.029 45.546-3.427 67.896-10.104 11.175-3.351 22.265-7.501 33.279-12.476 2.727-1.281 5.511-2.529 8.257-3.874l8.253-4.162c2.69-1.508 5.487-2.938 8.266-4.444 2.733-1.557 5.484-3.143 8.388-4.634-1.603 2.794-3.358 5.493-5.131 8.22a220.872 220.872 0 0 1-5.854 7.745c-2.037 2.531-4.268 4.873-6.441 7.328a23.566 23.566 0 0 1-1.697 1.761l-1.753 1.703-3.531 3.42c-9.649 8.868-20.589 16.52-32.392 22.688-23.6 12.395-50.585 18.848-77.538 18.823-26.952-0.012-53.929-6.463-77.521-18.865-11.799-6.17-22.739-13.815-32.387-22.679l-3.533-3.415c-1.155-1.158-2.379-2.212-3.45-3.462-2.177-2.45-4.406-4.793-6.446-7.32a221.712 221.712 0 0 1-5.86-7.736c-1.778-2.722-3.535-5.419-5.142-8.208zM876.677 408.31c-1.607 2.789-3.364 5.486-5.141 8.21a219.838 219.838 0 0 1-5.86 7.736c-2.04 2.527-4.269 4.87-6.446 7.32-1.071 1.25-2.295 2.304-3.45 3.462l-3.533 3.415c-9.649 8.865-20.588 16.509-32.387 22.679-23.592 12.402-50.569 18.853-77.521 18.865-26.953 0.025-53.938-6.428-77.538-18.823-11.803-6.169-22.743-13.82-32.392-22.688l-3.531-3.42-1.753-1.703a23.566 23.566 0 0 1-1.697-1.761c-2.174-2.455-4.404-4.797-6.441-7.328-2.013-2.559-3.978-5.13-5.854-7.745-1.774-2.728-3.529-5.427-5.131-8.22 2.904 1.491 5.655 3.076 8.388 4.634 2.778 1.506 5.576 2.936 8.266 4.444l8.253 4.162c2.746 1.344 5.529 2.592 8.257 3.874 11.014 4.976 22.104 9.125 33.279 12.476 22.349 6.677 45.097 10.075 67.896 10.104 22.8 0.009 45.556-3.392 67.913-10.061 11.179-3.35 22.27-7.506 33.284-12.485 2.727-1.284 5.506-2.538 8.254-3.88l8.248-4.169c2.688-1.511 5.484-2.944 8.26-4.452 2.728-1.563 5.478-3.151 8.377-4.646z" fill="#555F82" p-id="12095"></path><path d="M256.314 318.431c7.157-1.116 14.217-1.754 21.255-2.276l5.268-0.341 5.25-0.248 5.221-0.105 5.202-0.013c1.733 0.001 3.492-0.128 5.268-0.34 1.775-0.21 3.564-0.489 5.328-0.641 1.763-0.148 3.493-0.129 5.164 0.178 1.673 0.3 3.291 0.879 4.867 1.666 3.148 1.595 6.19 3.715 9.08 6.601 2.884 2.913 5.663 6.352 8.096 11.519l-0.628 3.138c-4.233 3.834-8.121 5.939-11.904 7.519-3.777 1.553-7.401 2.339-10.92 2.601-1.757 0.12-3.473 0.032-5.133-0.334-1.661-0.36-3.265-1.007-4.836-1.822-1.57-0.818-3.114-1.764-4.672-2.641-1.558-0.879-3.132-1.675-4.732-2.34l-4.798-2.013-4.779-2.105-4.75-2.248-4.732-2.341c-6.296-3.188-12.568-6.493-18.745-10.276l0.63-3.138zM768.314 321.569c-6.177 3.783-12.449 7.087-18.745 10.276l-4.732 2.341-4.75 2.248-4.779 2.105-4.798 2.013c-1.6 0.665-3.174 1.462-4.732 2.34-1.558 0.876-3.102 1.822-4.672 2.641-1.57 0.815-3.174 1.463-4.835 1.822-1.66 0.366-3.376 0.454-5.133 0.334-3.519-0.262-7.143-1.049-10.92-2.601-3.783-1.58-7.67-3.685-11.904-7.519l-0.628-3.138c2.433-5.167 5.212-8.606 8.096-11.519 2.889-2.886 5.932-5.006 9.08-6.601 1.576-0.786 3.194-1.365 4.867-1.666 1.672-0.307 3.402-0.326 5.165-0.178 1.764 0.152 3.553 0.431 5.328 0.641 1.776 0.212 3.535 0.342 5.268 0.34l5.202 0.013 5.221 0.105 5.25 0.248 5.268 0.341c7.038 0.522 14.099 1.16 21.255 2.276l0.628 3.138z" fill="#555F82" p-id="12096"></path><path d="M512 784l-0.001 144.001c0.214 35.346-28.44 63.999-63.785 63.999s-64-28.654-64.214-63.999L384.001 784H512z" fill="#0096FF" p-id="12097"></path></svg>